<svg width="80" height="80" viewBox="0 0 80 80" fill="none" xmlns="http://www.w3.org/2000/svg">
<rect width="80" height="80" rx="40" fill="#8A32E0"/>
<path fill-rule="evenodd" clip-rule="evenodd" d="M43.9375 23.375C43.9375 23.259 43.8914 23.1477 43.8094 23.0656C43.7273 22.9836 43.616 22.9375 43.5 22.9375H31.25C29.9736 22.9375 28.7496 23.4445 27.847 24.347C26.9445 25.2496 26.4375 26.4736 26.4375 27.75V52.25C26.4375 53.5264 26.9445 54.7504 27.847 55.653C28.7496 56.5555 29.9736 57.0625 31.25 57.0625H48.75C50.0264 57.0625 51.2504 56.5555 52.153 55.653C53.0555 54.7504 53.5625 53.5264 53.5625 52.25V35.0073C53.5625 34.8912 53.5164 34.7799 53.4344 34.6979C53.3523 34.6158 53.241 34.5698 53.125 34.5698H45.25C44.9019 34.5698 44.5681 34.4315 44.3219 34.1853C44.0758 33.9392 43.9375 33.6053 43.9375 33.2573V23.375ZM45.25 40.4375C45.5981 40.4375 45.9319 40.5758 46.1781 40.8219C46.4242 41.0681 46.5625 41.4019 46.5625 41.75C46.5625 42.0981 46.4242 42.4319 46.1781 42.6781C45.9319 42.9242 45.5981 43.0625 45.25 43.0625H34.75C34.4019 43.0625 34.0681 42.9242 33.8219 42.6781C33.5758 42.4319 33.4375 42.0981 33.4375 41.75C33.4375 41.4019 33.5758 41.0681 33.8219 40.8219C34.0681 40.5758 34.4019 40.4375 34.75 40.4375H45.25ZM45.25 47.4375C45.5981 47.4375 45.9319 47.5758 46.1781 47.8219C46.4242 48.0681 46.5625 48.4019 46.5625 48.75C46.5625 49.0981 46.4242 49.4319 46.1781 49.6781C45.9319 49.9242 45.5981 50.0625 45.25 50.0625H34.75C34.4019 50.0625 34.0681 49.9242 33.8219 49.6781C33.5758 49.4319 33.4375 49.0981 33.4375 48.75C33.4375 48.4019 33.5758 48.0681 33.8219 47.8219C34.0681 47.5758 34.4019 47.4375 34.75 47.4375H45.25Z" fill="white"/>
<path d="M46.5625 23.9406C46.5625 23.6186 46.9003 23.4138 47.1505 23.6151C47.3623 23.7866 47.553 23.9861 47.7158 24.2136L52.9885 31.5583C53.1075 31.7263 52.978 31.9433 52.7715 31.9433H47C46.884 31.9433 46.7727 31.8972 46.6906 31.8152C46.6086 31.7331 46.5625 31.6219 46.5625 31.5058V23.9406Z" fill="white"/>
</svg>
