<svg width="24" height="24" viewBox="0 0 24 24" fill="none" xmlns="http://www.w3.org/2000/svg">
<g id="confused" clip-path="url(#clip0_924_58529)">
<path id="Vector" d="M9.5736 10.2984C10.6656 10.2984 11.556 9.408 11.556 8.3136C11.556 8.1888 11.5392 8.1264 11.5272 8.0544C11.4663 7.68612 11.1478 7.416 10.7745 7.416H8.37027C7.99699 7.416 7.67852 7.68612 7.6176 8.0544C7.6056 8.1264 7.5888 8.2104 7.5888 8.3376C7.5888 9.4296 8.4792 10.2984 9.5736 10.2984ZM13.4544 10.044C13.7616 10.2144 14.0952 10.2984 14.424 10.2984C15.1176 10.2984 15.792 9.9336 16.1544 9.288C16.3728 8.8992 16.452 8.5032 16.3824 8.0544C16.32 7.68579 16.0008 7.416 15.6269 7.416H13.2254C12.8508 7.416 12.5313 7.68719 12.4704 8.0568C12.3456 8.8704 12.7392 9.6408 13.4544 10.044ZM11.0088 13.7424C9.53879 13.9977 8.21459 14.4834 7.43132 14.8103C7.01865 14.9825 6.856 15.4659 7.05624 15.8657C7.25629 16.2651 7.74222 16.4328 8.15576 16.2638C9.8386 15.5761 13.9672 14.2041 15.9437 16.3252C16.2485 16.6523 16.7347 16.8025 17.1246 16.5837C17.514 16.3651 17.6581 15.867 17.3821 15.516C16.3809 14.243 14.5061 13.1353 11.0088 13.7424ZM12 0C5.3832 0 0 5.3832 0 12C0 18.6168 5.3832 24 12 24C18.6168 24 24 18.6168 24 12C24 5.3832 18.6168 0 12 0ZM12 22.3824C6.276 22.3824 1.6176 17.724 1.6176 12C1.6176 6.276 6.276 1.6176 12 1.6176C17.724 1.6176 22.3824 6.276 22.3824 12C22.3824 17.724 17.724 22.3824 12 22.3824Z" fill="white"/>
</g>
<defs>
<clipPath id="clip0_924_58529">
<rect width="24" height="24" fill="white"/>
</clipPath>
</defs>
</svg>
