<svg width="24" height="24" viewBox="0 0 24 24" fill="none" xmlns="http://www.w3.org/2000/svg">
<g id="expressionless" clip-path="url(#clip0_924_58548)">
<path id="Vector" d="M6.888 15.24C6.888 14.7893 7.25334 14.424 7.704 14.424H16.032C16.4827 14.424 16.848 14.7893 16.848 15.24C16.848 15.6907 16.4827 16.056 16.032 16.056H7.704C7.25334 16.056 6.888 15.6907 6.888 15.24ZM12 0C5.3832 0 0 5.3832 0 12C0 18.6168 5.3832 24 12 24C18.6168 24 24 18.6168 24 12C24 5.3832 18.6168 0 12 0ZM12 22.3824C6.276 22.3824 1.6176 17.724 1.6176 12C1.6176 6.276 6.276 1.6176 12 1.6176C17.724 1.6176 22.3824 6.276 22.3824 12C22.3824 17.724 17.724 22.3824 12 22.3824ZM8.7624 12.1848C8.8392 12.1848 8.9184 12.18 8.9976 12.1704C10.0848 12.0432 10.8624 11.0544 10.7328 9.9672C10.6032 8.8824 9.6168 8.1024 8.5296 8.232C8.004 8.2944 7.5336 8.5584 7.2048 8.976C6.876 9.3936 6.732 9.9096 6.7944 10.4376C6.9144 11.4432 7.7736 12.1848 8.7624 12.1848ZM15.9384 8.4744C15.4776 8.2152 14.9424 8.1504 14.4312 8.292C13.9224 8.436 13.4976 8.7672 13.2384 9.2304C12.9768 9.6912 12.9144 10.224 13.056 10.7352C13.2 11.2464 13.5312 11.664 13.9944 11.928C14.2992 12.096 14.6328 12.1848 14.9616 12.1848C15.6552 12.1848 16.3296 11.82 16.6944 11.1744C17.2296 10.2216 16.8912 9.0096 15.9384 8.4744Z" fill="white"/>
</g>
<defs>
<clipPath id="clip0_924_58548">
<rect width="24" height="24" fill="white"/>
</clipPath>
</defs>
</svg>
