<svg width="24" height="24" viewBox="0 0 24 24" fill="none" xmlns="http://www.w3.org/2000/svg">
<g id="simple-smile" clip-path="url(#clip0_924_58576)">
<path id="Vector" d="M12 0C5.3832 0 0 5.3832 0 12C0 18.6168 5.3832 24 12 24C18.6168 24 24 18.6168 24 12C24 5.3832 18.6168 0 12 0ZM12 22.3824C6.276 22.3824 1.6176 17.724 1.6176 12C1.6176 6.276 6.276 1.6176 12 1.6176C17.724 1.6176 22.3824 6.276 22.3824 12C22.3824 17.724 17.724 22.3824 12 22.3824ZM18.0216 11.1912C17.5752 11.1912 17.2128 11.5536 17.2128 12C17.2128 14.8752 14.8752 17.2128 12 17.2128C9.1248 17.2128 6.7872 14.8752 6.7872 12C6.7872 11.5536 6.4248 11.1912 5.9784 11.1912C5.532 11.1912 5.1696 11.5536 5.1696 12C5.1696 15.768 8.232 18.8304 12 18.8304C15.768 18.8304 18.8304 15.768 18.8304 12C18.8304 11.5536 18.4704 11.1912 18.0216 11.1912ZM10.7472 8.3136C10.7472 8.964 10.2216 9.4896 9.5736 9.4896C8.9256 9.4896 8.4 8.964 8.4 8.3136C8.4 7.6656 8.9256 7.14 9.5736 7.14C10.2216 7.14 10.7472 7.6656 10.7472 8.3136ZM15.0048 7.2912C15.5688 7.608 15.768 8.3256 15.4512 8.8896C15.1344 9.4536 14.4168 9.6552 13.8528 9.3384C13.2864 9.0192 13.0872 8.304 13.404 7.7376C13.7208 7.1712 14.4384 6.972 15.0048 7.2912Z" fill="white"/>
</g>
<defs>
<clipPath id="clip0_924_58576">
<rect width="24" height="24" fill="white"/>
</clipPath>
</defs>
</svg>
