<svg width="24" height="24" viewBox="0 0 24 24" fill="none" xmlns="http://www.w3.org/2000/svg">
<g id="slightly-smile" clip-path="url(#clip0_924_58562)">
<path id="Vector" d="M12 0C5.3832 0 0 5.3832 0 12C0 18.6168 5.3832 24 12 24C18.6168 24 24 18.6168 24 12C24 5.3832 18.6168 0 12 0ZM12 22.3824C6.276 22.3824 1.6176 17.724 1.6176 12C1.6176 6.276 6.276 1.6176 12 1.6176C17.724 1.6176 22.3824 6.276 22.3824 12C22.3824 17.724 17.724 22.3824 12 22.3824ZM15.4128 15.672C13.5 17.3304 10.5 17.3304 8.5872 15.672C8.2488 15.3792 7.7376 15.4152 7.4448 15.7536C7.1544 16.0896 7.1904 16.6008 7.5264 16.8936C8.8032 18 10.4016 18.552 12 18.552C13.5984 18.552 15.1968 18 16.4736 16.8936C16.8096 16.6008 16.8456 16.0896 16.5552 15.7536C16.2648 15.4176 15.7512 15.3792 15.4128 15.672ZM10.7472 9.3936C10.7472 10.0416 10.2216 10.5672 9.5736 10.5672C8.9256 10.5672 8.3976 10.0416 8.3976 9.3936C8.3976 8.7456 8.9256 8.22 9.5736 8.22C10.2216 8.22 10.7472 8.7456 10.7472 9.3936ZM15.0024 8.3712C15.5688 8.688 15.768 9.4056 15.4488 9.9696C15.1296 10.5336 14.4168 10.7352 13.8504 10.4184C13.2864 10.0992 13.0848 9.384 13.404 8.8176C13.7232 8.2512 14.4384 8.052 15.0024 8.3712Z" fill="white"/>
</g>
<defs>
<clipPath id="clip0_924_58562">
<rect width="24" height="24" fill="white"/>
</clipPath>
</defs>
</svg>
