<svg width="24" height="24" viewBox="0 0 24 24" fill="none" xmlns="http://www.w3.org/2000/svg">
<g id="worried" clip-path="url(#clip0_976_57614)">
<path id="Vector" d="M12 0C5.3832 0 0 5.3832 0 12C0 18.6168 5.3832 24 12 24C18.6168 24 24 18.6168 24 12C24 5.3832 18.6168 0 12 0ZM12 22.3824C6.276 22.3824 1.6176 17.724 1.6176 12C1.6176 6.276 6.276 1.6176 12 1.6176C17.724 1.6176 22.3824 6.276 22.3824 12C22.3824 17.724 17.724 22.3824 12 22.3824ZM12 11.532C9.264 11.532 6.8808 13.0416 5.7768 15.4704C5.592 15.8784 5.772 16.356 6.18 16.5408C6.588 16.7256 7.0656 16.5456 7.2504 16.1376C8.088 14.2968 9.9072 13.152 12 13.152C14.0928 13.152 15.912 14.2968 16.7496 16.14C16.884 16.4376 17.1792 16.6152 17.4864 16.6152C17.5992 16.6152 17.712 16.5912 17.82 16.5432C18.228 16.3584 18.408 15.8784 18.2232 15.4728C17.1192 13.0416 14.736 11.532 12 11.532ZM9.5736 9.4896C10.2216 9.4896 10.7472 8.964 10.7472 8.316C10.7472 7.668 10.2216 7.1424 9.5736 7.1424C8.9256 7.1424 8.4 7.668 8.4 8.316C8.3976 8.964 8.9232 9.4896 9.5736 9.4896ZM13.8504 9.3384C14.4144 9.6576 15.132 9.456 15.4488 8.892C15.768 8.3256 15.5664 7.6104 15.0024 7.2936C14.4384 6.9768 13.7208 7.176 13.404 7.74C13.0848 8.304 13.2864 9.0192 13.8504 9.3384Z" fill="white"/>
</g>
<defs>
<clipPath id="clip0_976_57614">
<rect width="24" height="24" fill="white"/>
</clipPath>
</defs>
</svg>
