<svg width="52" height="52" viewBox="0 0 52 52" fill="none" xmlns="http://www.w3.org/2000/svg">
<path d="M26 0C11.6363 0 0 11.6379 0 26C0 40.3621 11.6379 52 26 52C40.3637 52 52 40.3621 52 26C52 11.6379 40.3621 0 26 0ZM38.7702 17.8125L34.5028 37.9214C34.1875 39.3472 33.3387 39.6928 32.1545 39.0218L25.6544 34.2311L22.5194 37.2505C22.1738 37.596 21.8803 37.8895 21.2093 37.8895L21.6706 31.2738L33.7161 20.3907C34.2412 19.9294 33.6004 19.6677 32.9076 20.129L18.0205 29.5008L11.6044 27.4979C10.2105 27.0585 10.1786 26.104 11.8979 25.433L36.9653 15.7661C38.1294 15.3467 39.1459 16.0495 38.7685 17.8108L38.7702 17.8125Z" fill="#8A32E0"/>
</svg>
