<svg width="23" height="14" viewBox="0 0 23 14" fill="none" xmlns="http://www.w3.org/2000/svg">
<path d="M2.80171 6.99997L7.26822 12.3598C7.62178 12.7841 7.56446 13.4146 7.14018 13.7682C6.71591 14.1218 6.08534 14.0644 5.73178 13.6402L0.731779 7.64016C0.42274 7.26931 0.42274 6.73064 0.731779 6.35979L5.73178 0.359791C6.08534 -0.0644865 6.71591 -0.12181 7.14018 0.231754C7.56446 0.585319 7.62178 1.21588 7.26822 1.64016L2.80171 6.99997Z" fill="#99A2AD"/>
<path d="M20.1983 7.00003L15.7318 1.64021C15.3782 1.21593 15.4355 0.585368 15.8598 0.231803C16.2841 -0.121761 16.9147 -0.0644364 17.2682 0.35984L22.2682 6.35984C22.5773 6.73069 22.5773 7.26936 22.2682 7.64021L17.2682 13.6402C16.9147 14.0645 16.2841 14.1218 15.8598 13.7682C15.4355 13.4147 15.3782 12.7841 15.7318 12.3598L20.1983 7.00003Z" fill="#99A2AD"/>
</svg>
