<svg width="32" height="32" viewBox="0 0 32 32" fill="none" xmlns="http://www.w3.org/2000/svg">
<path fill-rule="evenodd" clip-rule="evenodd" d="M27.6668 9.3335C27.6668 9.59871 27.5615 9.85307 27.3739 10.0406C27.1864 10.2281 26.932 10.3335 26.6668 10.3335H5.3335C5.06828 10.3335 4.81393 10.2281 4.62639 10.0406C4.43885 9.85307 4.3335 9.59871 4.3335 9.3335C4.3335 9.06828 4.43885 8.81393 4.62639 8.62639C4.81393 8.43885 5.06828 8.3335 5.3335 8.3335H26.6668C26.932 8.3335 27.1864 8.43885 27.3739 8.62639C27.5615 8.81393 27.6668 9.06828 27.6668 9.3335ZM27.6668 16.0002C27.6668 16.2654 27.5615 16.5197 27.3739 16.7073C27.1864 16.8948 26.932 17.0002 26.6668 17.0002H5.3335C5.06828 17.0002 4.81393 16.8948 4.62639 16.7073C4.43885 16.5197 4.3335 16.2654 4.3335 16.0002C4.3335 15.7349 4.43885 15.4806 4.62639 15.2931C4.81393 15.1055 5.06828 15.0002 5.3335 15.0002H26.6668C26.932 15.0002 27.1864 15.1055 27.3739 15.2931C27.5615 15.4806 27.6668 15.7349 27.6668 16.0002ZM27.6668 22.6668C27.6668 22.932 27.5615 23.1864 27.3739 23.3739C27.1864 23.5615 26.932 23.6668 26.6668 23.6668H5.3335C5.06828 23.6668 4.81393 23.5615 4.62639 23.3739C4.43885 23.1864 4.3335 22.932 4.3335 22.6668C4.3335 22.4016 4.43885 22.1473 4.62639 21.9597C4.81393 21.7722 5.06828 21.6668 5.3335 21.6668H26.6668C26.932 21.6668 27.1864 21.7722 27.3739 21.9597C27.5615 22.1473 27.6668 22.4016 27.6668 22.6668Z" fill="#2C2D2E"/>
</svg>
