<svg width="223" height="68" fill="none" xmlns="http://www.w3.org/2000/svg"><path d="M39 18a1.5 1.5 0 0 1 3 0v32a1.5 1.5 0 0 1-3 0V18Z" fill="url(#a)"/><path d="M44 25a1.5 1.5 0 0 1 3 0v19a1.5 1.5 0 0 1-3 0V25Z" fill="url(#b)"/><path d="M49 30a1.5 1.5 0 0 1 3 0v9a1.5 1.5 0 0 1-3 0v-9Z" fill="url(#c)"/><path d="M54 32a1.5 1.5 0 0 1 3 0v5a1.5 1.5 0 0 1-3 0v-5Z" fill="url(#d)"/><path d="M24 32a1.5 1.5 0 0 1 3 0v5a1.5 1.5 0 0 1-3 0v-5Z" fill="url(#e)"/><path d="M34 25a1.5 1.5 0 0 1 3 0v19a1.5 1.5 0 0 1-3 0V25Z" fill="url(#f)"/><path d="M29 30a1.5 1.5 0 0 1 3 0v9a1.5 1.5 0 0 1-3 0v-9Z" fill="url(#g)"/><path d="M70.992 43V26.2h3.216l7.152 11.856h-1.704L86.688 26.2h3.192l.048 16.8H86.28l-.024-11.208h.672l-5.616 9.432H79.56l-5.736-9.432h.816V43h-3.648Zm28.802.192c-1.376 0-2.6-.288-3.672-.864a6.726 6.726 0 0 1-2.52-2.352c-.608-1.008-.912-2.152-.912-3.432 0-1.296.304-2.44.912-3.432a6.482 6.482 0 0 1 2.52-2.352c1.072-.576 2.296-.864 3.672-.864 1.36 0 2.576.288 3.648.864 1.072.56 1.912 1.336 2.52 2.328.608.992.912 2.144.912 3.456 0 1.28-.304 2.424-.912 3.432-.608.992-1.448 1.776-2.52 2.352-1.072.576-2.288.864-3.648.864Zm0-3.072c.624 0 1.184-.144 1.68-.432a3.095 3.095 0 0 0 1.176-1.224c.288-.544.432-1.184.432-1.92 0-.752-.144-1.392-.432-1.92a3.095 3.095 0 0 0-1.176-1.224 3.284 3.284 0 0 0-1.68-.432c-.624 0-1.184.144-1.68.432a3.266 3.266 0 0 0-1.2 1.224c-.288.528-.432 1.168-.432 1.92 0 .736.144 1.376.432 1.92.304.528.704.936 1.2 1.224a3.284 3.284 0 0 0 1.68.432Zm15.726 3.072c-1.376 0-2.6-.288-3.672-.864a6.726 6.726 0 0 1-2.52-2.352c-.608-1.008-.912-2.152-.912-3.432 0-1.296.304-2.44.912-3.432a6.482 6.482 0 0 1 2.52-2.352c1.072-.576 2.296-.864 3.672-.864 1.36 0 2.576.288 3.648.864 1.072.56 1.912 1.336 2.52 2.328.608.992.912 2.144.912 3.456 0 1.28-.304 2.424-.912 3.432-.608.992-1.448 1.776-2.52 2.352-1.072.576-2.288.864-3.648.864Zm0-3.072c.624 0 1.184-.144 1.68-.432a3.095 3.095 0 0 0 1.176-1.224c.288-.544.432-1.184.432-1.92 0-.752-.144-1.392-.432-1.92A3.095 3.095 0 0 0 117.2 33.4a3.284 3.284 0 0 0-1.68-.432c-.624 0-1.184.144-1.68.432a3.266 3.266 0 0 0-1.2 1.224c-.288.528-.432 1.168-.432 1.92 0 .736.144 1.376.432 1.92.304.528.704.936 1.2 1.224a3.284 3.284 0 0 0 1.68.432Zm15.127 3.072c-1.216 0-2.312-.272-3.288-.816a6.252 6.252 0 0 1-2.328-2.328c-.56-.992-.84-2.16-.84-3.504 0-1.36.28-2.536.84-3.528a6.074 6.074 0 0 1 2.328-2.304c.976-.544 2.072-.816 3.288-.816 1.088 0 2.04.24 2.856.72.816.48 1.448 1.208 1.896 2.184.448.976.672 2.224.672 3.744 0 1.504-.216 2.752-.648 3.744-.432.976-1.056 1.704-1.872 2.184-.8.48-1.768.72-2.904.72Zm.648-3.072c.608 0 1.16-.144 1.656-.432a3.095 3.095 0 0 0 1.176-1.224c.304-.544.456-1.184.456-1.92 0-.752-.152-1.392-.456-1.92a3.095 3.095 0 0 0-1.176-1.224 3.238 3.238 0 0 0-1.656-.432c-.624 0-1.184.144-1.68.432a3.266 3.266 0 0 0-1.2 1.224c-.288.528-.432 1.168-.432 1.92 0 .736.144 1.376.432 1.92.304.528.704.936 1.2 1.224a3.284 3.284 0 0 0 1.68.432Zm3.384 2.88v-2.64l.072-3.84-.24-3.816v-7.512h3.744V43h-3.576Zm7.305 0V26.2h8.208c2.112 0 3.696.4 4.752 1.2 1.072.8 1.608 1.856 1.608 3.168 0 .88-.216 1.648-.648 2.304-.432.64-1.024 1.136-1.776 1.488-.752.352-1.616.528-2.592.528l.456-.984c1.056 0 1.992.176 2.808.528.816.336 1.448.84 1.896 1.512.464.672.696 1.496.696 2.472 0 1.44-.568 2.568-1.704 3.384-1.136.8-2.808 1.2-5.016 1.2h-8.688Zm3.864-2.928h4.536c1.008 0 1.768-.16 2.28-.48.528-.336.792-.864.792-1.584 0-.704-.264-1.224-.792-1.56-.512-.352-1.272-.528-2.28-.528h-4.824v-2.832h4.152c.944 0 1.664-.16 2.16-.48.512-.336.768-.84.768-1.512 0-.656-.256-1.144-.768-1.464-.496-.336-1.216-.504-2.16-.504h-3.864v10.944Zm20.632 3.12c-1.472 0-2.768-.288-3.888-.864-1.104-.576-1.96-1.36-2.568-2.352-.608-1.008-.912-2.152-.912-3.432 0-1.296.296-2.44.888-3.432a6.353 6.353 0 0 1 2.472-2.352c1.04-.576 2.216-.864 3.528-.864 1.264 0 2.4.272 3.408.816a5.896 5.896 0 0 1 2.424 2.304c.592.992.888 2.184.888 3.576 0 .144-.008.312-.024.504l-.048.504H162.16v-2.184h8.52l-1.44.648c0-.672-.136-1.256-.408-1.752a2.895 2.895 0 0 0-1.128-1.152c-.48-.288-1.04-.432-1.68-.432-.64 0-1.208.144-1.704.432-.48.272-.856.664-1.128 1.176-.272.496-.408 1.088-.408 1.776v.576c0 .704.152 1.328.456 1.872.32.528.76.936 1.32 1.224.576.272 1.248.408 2.016.408.688 0 1.288-.104 1.8-.312a4.378 4.378 0 0 0 1.44-.936l1.992 2.16c-.592.672-1.336 1.192-2.232 1.56-.896.352-1.928.528-3.096.528ZM182.781 43v-2.52l-.24-.552v-4.512c0-.8-.248-1.424-.744-1.872-.48-.448-1.224-.672-2.232-.672-.688 0-1.368.112-2.04.336-.656.208-1.216.496-1.68.864l-1.344-2.616c.704-.496 1.552-.88 2.544-1.152.992-.272 2-.408 3.024-.408 1.968 0 3.496.464 4.584 1.392 1.088.928 1.632 2.376 1.632 4.344V43h-3.504Zm-3.936.192c-1.008 0-1.872-.168-2.592-.504-.72-.352-1.272-.824-1.656-1.416a3.582 3.582 0 0 1-.576-1.992c0-.768.184-1.44.552-2.016.384-.576.984-1.024 1.8-1.344.816-.336 1.88-.504 3.192-.504h3.432V37.6h-3.024c-.88 0-1.488.144-1.824.432-.32.288-.48.648-.48 1.08 0 .48.184.864.552 1.152.384.272.904.408 1.56.408.624 0 1.184-.144 1.68-.432.496-.304.856-.744 1.08-1.32l.576 1.728c-.272.832-.768 1.464-1.488 1.896-.72.432-1.648.648-2.784.648Zm16.108 0c-1.52 0-2.704-.384-3.552-1.152-.848-.784-1.272-1.944-1.272-3.48V27.232h3.744v11.28c0 .544.144.968.432 1.272.288.288.68.432 1.176.432.592 0 1.096-.16 1.512-.48l1.008 2.64c-.384.272-.848.48-1.392.624a7.006 7.006 0 0 1-1.656.192Zm-6.816-9.936v-2.88h8.952v2.88h-8.952Z" fill="#2C2D2E"/><defs><linearGradient id="a" x1="30.5" y1="28.5" x2="30.5" y2="40.5" gradientUnits="userSpaceOnUse"><stop offset=".008" stop-color="#FD3B77"/><stop offset="1" stop-color="#4C239D"/></linearGradient><linearGradient id="b" x1="30.5" y1="28.5" x2="30.5" y2="40.5" gradientUnits="userSpaceOnUse"><stop offset=".008" stop-color="#FD3B77"/><stop offset="1" stop-color="#4C239D"/></linearGradient><linearGradient id="c" x1="30.5" y1="28.5" x2="30.5" y2="40.5" gradientUnits="userSpaceOnUse"><stop offset=".008" stop-color="#FD3B77"/><stop offset="1" stop-color="#4C239D"/></linearGradient><linearGradient id="d" x1="30.5" y1="28.5" x2="30.5" y2="40.5" gradientUnits="userSpaceOnUse"><stop offset=".008" stop-color="#FD3B77"/><stop offset="1" stop-color="#4C239D"/></linearGradient><linearGradient id="e" x1="30.5" y1="28.5" x2="30.5" y2="40.5" gradientUnits="userSpaceOnUse"><stop offset=".008" stop-color="#FD3B77"/><stop offset="1" stop-color="#4C239D"/></linearGradient><linearGradient id="f" x1="30.5" y1="28.5" x2="30.5" y2="40.5" gradientUnits="userSpaceOnUse"><stop offset=".008" stop-color="#FD3B77"/><stop offset="1" stop-color="#4C239D"/></linearGradient><linearGradient id="g" x1="30.5" y1="28.5" x2="30.5" y2="40.5" gradientUnits="userSpaceOnUse"><stop offset=".008" stop-color="#FD3B77"/><stop offset="1" stop-color="#4C239D"/></linearGradient></defs></svg>